<?xml version="1.0" standalone="no"?>
<!DOCTYPE svg PUBLIC "-//W3C//DTD SVG 20010904//EN"
 "http://www.w3.org/TR/2001/REC-SVG-20010904/DTD/svg10.dtd">
<svg version="1.0" xmlns="http://www.w3.org/2000/svg"
 width="700.000000pt" height="700.000000pt" viewBox="0 0 700.000000 700.000000"
 preserveAspectRatio="xMidYMid meet">
<metadata>
Created by potrace 1.14, written by Peter Selinger 2001-2017
</metadata>
<g transform="translate(0.000000,700.000000) scale(0.100000,-0.100000)"
fill="#000000" stroke="none">
<path d="M672 6984 c-29 -20 -55 -71 -57 -109 -1 -16 6 -50 15 -75 14 -39 16
-104 14 -500 -1 -250 -2 -460 -3 -466 -1 -6 -25 -28 -53 -48 -167 -116 -184
-131 -197 -184 -6 -23 -9 -1077 -8 -2768 l2 -2731 27 -35 c15 -19 42 -43 61
-52 32 -15 274 -16 3027 -16 2753 0 2995 1 3027 16 19 9 46 33 61 52 l27 35 1
2746 c1 2420 0 2749 -14 2776 -18 37 -27 45 -93 92 -30 21 -75 54 -101 73
l-48 34 0 477 c0 379 3 483 14 510 22 57 10 115 -37 167 l-20 22 -2812 0
c-2531 0 -2813 -2 -2833 -16z"/>
</g>
</svg>
